# Blender v2.92.0 OBJ File: ''
# www.blender.org
mtllib pack_body.mtl
o PackBody_Plane
v -0.315076 -0.030985 -0.013250
v 0.345076 -0.031028 -0.013250
v -0.315076 0.030965 -0.013250
v 0.345076 0.031028 -0.013250
v -0.315076 -0.030985 0.047555
v 0.345076 -0.031028 0.047555
v -0.315076 0.030965 0.047555
v 0.345076 0.031028 0.047555
v -0.182158 -0.107713 -0.013250
v 0.212029 -0.107713 -0.013250
v 0.212029 0.108079 -0.013250
v -0.182158 0.108079 -0.013250
v -0.182158 -0.107713 0.084369
v 0.212029 -0.107713 0.084369
v 0.212029 0.108079 0.084369
v -0.182158 0.108079 0.084369
v 0.364935 -0.031028 -0.013250
v 0.364935 0.031028 -0.013250
v 0.364935 -0.031028 0.047555
v 0.364935 0.031028 0.047555
v -0.334935 -0.030985 -0.013250
v -0.334935 0.030965 -0.013250
v -0.334935 -0.030985 0.047555
v -0.334935 0.030965 0.047555
vt 0.125000 0.062500
vt 0.125000 0.062500
vt 0.125000 0.062500
vt 0.125000 0.062500
vt 0.125000 0.062500
vt 0.125000 0.062500
vt 0.062500 0.062500
vt 0.062500 0.062500
vt 0.062500 0.062500
vt 0.125000 0.062500
vt 0.125000 0.062500
vt 0.062500 0.062500
vt 0.062500 0.062500
vt 0.062500 0.062500
vt 0.062500 0.062500
vt 0.062500 0.062500
vt 0.125000 0.062500
vt 0.125000 0.062500
vt 0.125000 0.062500
vt 0.062500 0.062500
vt 0.062500 0.062500
vt 0.062500 0.062500
vt 0.125000 0.062500
vt 0.125000 0.062500
vt 0.125000 0.062500
vt 0.125000 0.062500
vt 0.125000 0.062500
vt 0.062500 0.062500
vt 0.062500 0.062500
vt 0.062500 0.062500
vn 0.0000 0.0000 -1.0000
vn 0.2667 0.0000 0.9638
vn -0.5018 0.8650 0.0000
vn 0.4994 -0.8664 0.0000
vn 0.0000 0.0000 1.0000
vn 0.0000 1.0000 0.0000
vn -0.4999 -0.8661 0.0000
vn 0.0000 -1.0000 0.0000
vn 0.5012 0.8654 0.0000
vn -0.2669 0.0000 0.9637
vn 1.0000 0.0000 0.0000
vn -1.0000 0.0000 0.0000
usemtl SpotMat.001
s off
f 10/1/1 4/2/1 2/3/1
f 14/4/2 8/5/2 15/6/2
f 12/7/3 7/8/3 16/9/3
f 10/1/4 6/10/4 14/4/4
f 6/10/5 20/11/5 8/5/5
f 3/12/6 24/13/6 7/8/6
f 9/14/7 5/15/7 1/16/7
f 10/1/8 13/17/8 9/18/8
f 11/19/9 8/5/9 4/2/9
f 12/7/6 15/20/6 11/21/6
f 13/22/10 7/8/10 5/15/10
f 14/4/5 16/23/5 13/17/5
f 3/12/1 9/14/1 1/16/1
f 12/24/1 10/1/1 9/18/1
f 18/25/11 19/26/11 17/27/11
f 4/2/1 17/27/1 2/3/1
f 8/5/6 18/25/6 4/2/6
f 2/3/8 19/26/8 6/10/8
f 21/28/12 24/13/12 22/29/12
f 7/8/5 23/30/5 5/15/5
f 1/16/1 22/29/1 3/12/1
f 5/15/8 21/28/8 1/16/8
f 10/1/1 11/19/1 4/2/1
f 14/4/2 6/10/2 8/5/2
f 12/7/3 3/12/3 7/8/3
f 10/1/4 2/3/4 6/10/4
f 6/10/5 19/26/5 20/11/5
f 3/12/6 22/29/6 24/13/6
f 9/14/7 13/22/7 5/15/7
f 10/1/8 14/4/8 13/17/8
f 11/19/9 15/6/9 8/5/9
f 12/7/6 16/9/6 15/20/6
f 13/22/10 16/9/10 7/8/10
f 14/4/5 15/6/5 16/23/5
f 3/12/1 12/7/1 9/14/1
f 12/24/1 11/19/1 10/1/1
f 18/25/11 20/11/11 19/26/11
f 4/2/1 18/25/1 17/27/1
f 8/5/6 20/11/6 18/25/6
f 2/3/8 17/27/8 19/26/8
f 21/28/12 23/30/12 24/13/12
f 7/8/5 24/13/5 23/30/5
f 1/16/1 21/28/1 22/29/1
f 5/15/8 23/30/8 21/28/8
