solid csg.js
facet normal -1 0 0
outer loop
vertex -2.31 -2.31 -0.06
vertex -2.31 -2.31 0.06
vertex -2.31 2.31 0.06
endloop
endfacet
facet normal -1 0 0
outer loop
vertex -2.31 -2.31 -0.06
vertex -2.31 2.31 0.06
vertex -2.31 2.31 -0.06
endloop
endfacet
facet normal 1 0 0
outer loop
vertex 2.31 -2.31 -0.06
vertex 2.31 2.31 -0.06
vertex 2.31 2.31 0.06
endloop
endfacet
facet normal 1 0 0
outer loop
vertex 2.31 -2.31 -0.06
vertex 2.31 2.31 0.06
vertex 2.31 -2.31 0.06
endloop
endfacet
facet normal 0 -1 0
outer loop
vertex -2.31 -2.31 -0.06
vertex 2.31 -2.31 -0.06
vertex 2.31 -2.31 0.06
endloop
endfacet
facet normal 0 -1 0
outer loop
vertex -2.31 -2.31 -0.06
vertex 2.31 -2.31 0.06
vertex -2.31 -2.31 0.06
endloop
endfacet
facet normal 0 1 0
outer loop
vertex -2.31 2.31 -0.06
vertex -2.31 2.31 0.06
vertex 2.31 2.31 0.06
endloop
endfacet
facet normal 0 1 0
outer loop
vertex -2.31 2.31 -0.06
vertex 2.31 2.31 0.06
vertex 2.31 2.31 -0.06
endloop
endfacet
facet normal 0 0 -1
outer loop
vertex -2.31 -2.31 -0.06
vertex -2.31 2.31 -0.06
vertex 2.31 2.31 -0.06
endloop
endfacet
facet normal 0 0 -1
outer loop
vertex -2.31 -2.31 -0.06
vertex 2.31 2.31 -0.06
vertex 2.31 -2.31 -0.06
endloop
endfacet
facet normal 0 0 1
outer loop
vertex -2.31 -2.31 0.06
vertex 2.31 -2.31 0.06
vertex 2.31 2.31 0.06
endloop
endfacet
facet normal 0 0 1
outer loop
vertex -2.31 -2.31 0.06
vertex 2.31 2.31 0.06
vertex -2.31 2.31 0.06
endloop
endfacet
endsolid csg.js
