# Blender 4.1.1
# www.blender.org
mtllib Baseball_Field.mtl
o Bases
v -0.289033 0.000000 7.088422
v -0.289033 0.000000 7.666489
v 0.289033 -0.000000 7.088422
v 0.289033 -0.000000 7.666489
v 3.550253 -0.000001 3.337726
v 3.825606 -0.000001 3.613079
v 3.825606 -0.000001 3.062372
v 4.100960 -0.000001 3.337725
v -4.090499 0.000001 3.337729
v -3.815145 0.000001 3.613082
v -3.815145 0.000001 3.062375
v -3.539792 0.000001 3.337728
v -0.275357 0.000000 -0.478344
v -0.000003 0.000000 -0.202990
v -0.000003 0.000000 -0.753697
v 0.275351 -0.000000 -0.478344
v 0.289033 0.045005 7.088422
v -0.289033 0.045005 7.088422
v -0.289033 0.045005 7.666489
v 0.289033 0.045005 7.666489
v 3.825606 0.045005 3.062372
v 3.550253 0.045005 3.337726
v 3.825606 0.045005 3.613079
v 4.100960 0.045005 3.337725
v -3.815145 0.045006 3.062375
v -4.090499 0.045006 3.337729
v -3.815145 0.045006 3.613082
v -3.539792 0.045006 3.337728
v -0.000003 0.045005 -0.753697
v -0.275357 0.045005 -0.478344
v -0.000003 0.045005 -0.202990
v 0.275351 0.045005 -0.478344
vn -0.0000 -1.0000 -0.0000
vn -0.0000 1.0000 -0.0000
vn -0.0000 -0.0000 -1.0000
vn 0.7071 -0.0000 -0.7071
vn -0.7071 -0.0000 -0.7071
vn -1.0000 -0.0000 -0.0000
vn -0.7071 -0.0000 0.7071
vn -0.0000 -0.0000 1.0000
vn 0.7071 -0.0000 0.7071
vn 1.0000 -0.0000 -0.0000
vt 0.000000 0.000000
vt 0.000000 1.000000
vt 1.000000 1.000000
vt 1.000000 0.000000
s 1
usemtl White
f 1/1/1 3/2/1 4/3/1 2/4/1
f 5/1/1 7/2/1 8/3/1 6/4/1
f 9/1/1 11/2/1 12/3/1 10/4/1
f 13/1/1 15/2/1 16/3/1 14/4/1
f 18/1/2 19/4/2 20/3/2 17/2/2
f 22/1/2 23/4/2 24/3/2 21/2/2
f 26/1/2 27/4/2 28/3/2 25/2/2
f 30/1/2 31/4/2 32/3/2 29/2/2
f 3/2/3 1/1/3 18/1/3 17/2/3
f 16/3/4 15/2/4 29/2/4 32/3/4
f 11/2/5 9/1/5 26/1/5 25/2/5
f 1/1/6 2/4/6 19/4/6 18/1/6
f 9/1/7 10/4/7 27/4/7 26/1/7
f 2/4/8 4/3/8 20/3/8 19/4/8
f 10/4/9 12/3/9 28/3/9 27/4/9
f 4/3/10 3/2/10 17/2/10 20/3/10
f 12/3/4 11/2/4 25/2/4 28/3/4
f 7/2/5 5/1/5 22/1/5 21/2/5
f 15/2/5 13/1/5 30/1/5 29/2/5
f 5/1/7 6/4/7 23/4/7 22/1/7
f 13/1/7 14/4/7 31/4/7 30/1/7
f 6/4/9 8/3/9 24/3/9 23/4/9
f 14/4/9 16/3/9 32/3/9 31/4/9
f 8/3/4 7/2/4 21/2/4 24/3/4
o White_Lines
v 11.212788 0.005111 -3.691277
v 11.246895 0.005111 -3.618824
v 5.979622 0.005112 1.575227
v 6.039803 0.005112 1.635406
v 5.621377 0.034595 1.934136
v 5.681556 0.034595 1.994315
v -11.212790 0.005113 -3.691278
v -11.246896 0.005113 -3.618825
v -5.979623 0.005113 1.575226
v -6.039804 0.005113 1.635405
v -5.621377 0.034596 1.934136
v -5.681556 0.034596 1.994315
v -0.052622 0.029226 7.618655
v 0.007556 0.029226 7.678833
v 0.060200 0.029219 7.626246
v 0.000021 0.029219 7.686426
v -3.774809 0.028146 3.369068
v -3.834989 0.028146 3.308889
v 3.771270 0.028142 3.365523
v 3.831448 0.028142 3.305345
v 0.052622 0.024523 -0.465458
v -0.007556 0.024523 -0.525638
v -0.060200 0.024516 -0.473051
v -0.000021 0.024516 -0.533230
v -4.388396 0.001692 4.802432
v -3.996943 0.001691 4.410978
v -5.034623 0.001692 4.156205
v -4.643169 0.001691 3.764751
v -4.951077 0.001692 4.159799
v -4.391990 0.001692 4.718885
v -4.080489 0.001691 4.407385
v -4.639576 0.001691 3.848298
v 4.388396 0.001691 4.802432
v 3.996943 0.001691 4.410978
v 5.034623 0.001690 4.156205
v 4.643169 0.001690 3.764751
v 4.951076 0.001690 4.159798
v 4.391990 0.001691 4.718885
v 4.080489 0.001691 4.407384
v 4.639575 0.001690 3.848298
v -0.276799 0.025481 8.632304
v 0.276800 0.025481 8.632304
v -0.276799 0.025481 7.718401
v 0.276800 0.025481 7.718402
v -0.220264 0.025481 7.780018
v -0.220264 0.025481 8.570687
v 0.220264 0.025481 8.570687
v 0.220264 0.025481 7.780018
v -0.955321 0.025675 7.894730
v -0.401722 0.025675 7.894730
v -0.955321 0.025674 6.668797
v -0.401722 0.025674 6.668797
v -0.898342 0.025674 6.732976
v -0.898342 0.025675 7.830550
v -0.458701 0.025675 7.830550
v -0.458701 0.025674 6.732976
v 0.955321 0.025674 7.894730
v 0.401722 0.025674 7.894730
v 0.955321 0.025674 6.668797
v 0.401722 0.025674 6.668797
v 0.898342 0.025674 6.732976
v 0.898342 0.025674 7.830550
v 0.458702 0.025674 7.830550
v 0.458702 0.025674 6.732976
vn -0.0000 1.0000 -0.0000
vn 0.0410 0.9983 -0.0410
vn -0.0005 1.0000 0.0005
vn -0.0205 0.9996 -0.0205
vn -0.0203 0.9996 -0.0203
vn 0.0005 1.0000 0.0005
vn 0.0005 1.0000 -0.0005
vn -0.0005 1.0000 -0.0005
vt 0.000000 0.549862
vt 1.000000 0.549862
vt 1.000000 1.000000
vt 0.000000 1.000000
vt 0.000000 0.519307
vt 1.000000 0.519307
vt 0.000000 0.035366
vt 1.000000 0.035366
vt 0.000000 0.034719
vt 1.000000 0.034719
vt 1.000000 0.361811
vt 0.000000 0.361811
vt 0.000000 0.361509
vt 1.000000 0.361509
vt 1.000000 0.000000
vt 0.000000 0.000000
s 1
usemtl White
f 35/5/11 36/6/11 34/7/11 33/8/11
f 37/9/12 38/10/12 36/6/12 35/5/12
f 45/11/13 46/12/13 38/10/13 37/9/13
f 41/5/14 39/8/11 40/7/11 42/6/14
f 43/9/15 41/5/14 42/6/14 44/10/15
f 47/13/16 43/9/15 44/10/15 48/14/16
f 53/11/17 54/12/17 50/15/17 49/16/17
f 55/13/18 51/17/18 52/18/18 56/14/18
f 58/19/11 60/7/11 64/7/11 63/19/11
f 59/8/11 57/20/11 62/20/11 61/8/11
f 60/7/11 59/8/11 61/8/11 64/7/11
f 57/20/11 58/19/11 63/19/11 62/20/11
f 66/19/11 71/19/11 72/7/11 68/7/11
f 67/8/11 69/8/11 70/20/11 65/20/11
f 68/7/11 72/7/11 69/8/11 67/8/11
f 65/20/11 70/20/11 71/19/11 66/19/11
f 74/19/11 76/7/11 80/7/11 79/19/11
f 75/8/11 73/20/11 78/20/11 77/8/11
f 76/7/11 75/8/11 77/8/11 80/7/11
f 73/20/11 74/19/11 79/19/11 78/20/11
f 82/19/11 84/7/11 88/7/11 87/19/11
f 83/8/11 81/20/11 86/20/11 85/8/11
f 84/7/11 83/8/11 85/8/11 88/7/11
f 81/20/11 82/19/11 87/19/11 86/20/11
f 90/19/11 95/19/11 96/7/11 92/7/11
f 91/8/11 93/8/11 94/20/11 89/20/11
f 92/7/11 96/7/11 93/8/11 91/8/11
f 89/20/11 94/20/11 95/19/11 90/19/11
o Field
v 0.000000 -0.027853 12.534643
v 14.798673 -0.027853 -2.264030
v -14.798673 -0.027856 -2.264030
v 0.000000 -0.027856 -17.062702
v -0.000000 0.000001 5.987417
v -0.281740 0.000001 6.015166
v -0.552652 0.000001 6.097346
v -1.334220 0.000001 6.878914
v -1.416401 0.000001 7.149827
v -1.444150 0.000001 7.431567
v -1.416401 0.000001 7.713306
v -1.334220 0.000001 7.984219
v -1.200767 0.000001 8.233892
v -1.021168 0.000001 8.452734
v -0.802327 0.000001 8.632334
v -0.552652 0.000001 8.765787
v -0.281739 0.000001 8.847967
v 0.000000 0.000001 8.875715
v 0.281740 0.000001 8.847967
v 0.552653 0.000001 8.765787
v 0.802328 0.000001 8.632332
v 1.021168 0.000001 8.452734
v 1.200767 0.000001 8.233892
v 1.334221 0.000001 7.984217
v 1.416401 0.000001 7.713305
v 1.444149 0.000001 7.431565
v 1.416400 0.000001 7.149825
v 1.334220 0.000001 6.878912
v 0.552650 0.000001 6.097346
v 0.281738 0.000001 6.015166
v -0.677490 0.000001 6.164073
v 0.677488 0.000001 6.164073
v 12.156404 0.000001 -1.686751
v -12.148388 -0.000001 -1.677420
v 0.050507 0.000001 10.462082
v 0.004008 -0.000001 -10.384266
v 9.541479 0.000001 -6.036836
v -9.533463 -0.000002 -6.029515
v -11.124451 -0.000001 -3.853357
v 11.132467 0.000001 -3.861901
v 5.305361 -0.000000 -9.157893
v -5.297345 -0.000001 -9.153823
v 2.654685 -0.000001 -10.032735
v -2.646669 -0.000001 -10.030701
v -7.570872 -0.000002 -7.812797
v 7.578890 0.000000 -7.818614
v 6.050052 0.000001 2.001313
v -6.038698 -0.000000 2.006299
v 0.005678 -0.000000 -2.645701
v 4.749438 0.000001 -0.322904
v -4.738083 -0.000000 -0.318991
v -5.529411 -0.000000 0.843712
v 5.540765 0.000001 0.839147
v 2.642472 0.000000 -1.990458
v -2.631117 -0.000000 -1.988284
v 1.324075 0.000000 -2.457881
v -1.312720 -0.000000 -2.456794
v -3.761926 -0.000000 -1.271785
v 3.773282 0.000001 -1.274892
v -3.507739 0.000000 3.327271
v -0.000000 0.000000 -0.180468
v 3.507739 0.000001 3.327271
v 6.103455 0.000001 4.387666
v -6.048941 0.000000 4.392332
v -2.999217 0.000001 7.427207
v 3.076982 0.000001 7.424875
v -0.000000 0.023721 6.228965
v -0.234615 0.023721 6.252073
v -0.460216 0.023721 6.320508
v -1.159492 0.023721 6.836773
v -1.179494 0.023721 7.196950
v -1.202601 0.023721 7.431567
v -1.179494 0.023721 7.666182
v -1.111059 0.023721 7.891782
v -0.999927 0.023722 8.099695
v -0.850368 0.023722 8.281935
v -0.668129 0.023722 8.431494
v -0.460216 0.023722 8.542625
v -0.234616 0.023722 8.611059
v -0.000000 0.023722 8.634169
v 0.234617 0.023722 8.611059
v 0.460217 0.023722 8.542625
v 0.668130 0.023722 8.431492
v 0.850368 0.023722 8.281933
v 0.999928 0.023722 8.099695
v 1.111059 0.023722 7.891781
v 1.179494 0.023722 7.666182
v 1.202602 0.023722 7.431565
v 1.179494 0.023722 7.196949
v 1.159551 0.023722 6.836722
v 0.460214 0.023721 6.320508
v 0.234614 0.023721 6.252072
v -0.701721 0.023721 6.326779
v 0.701719 0.023721 6.326779
v 5.788911 0.023722 1.954397
v -5.777557 0.023720 1.959458
v 0.005777 0.023720 -2.401348
v 4.564269 0.023721 -0.167605
v -4.552865 0.023720 -0.163760
v -5.318378 0.023720 0.960438
v 5.329753 0.023721 0.955916
v 2.536487 0.023721 -1.772417
v -2.524990 0.023720 -1.770317
v 1.266375 0.023721 -2.223228
v -1.254840 0.023720 -2.222188
v -3.611864 0.023720 -1.081994
v 3.623313 0.023721 -1.085021
v -3.649335 0.023721 3.327190
v -0.000000 0.023721 -0.321968
v 3.649335 0.023721 3.327190
v 12.768710 -0.053170 -1.622095
v -12.761605 -0.053173 -1.612294
v 0.052396 -0.053170 11.139320
v 0.003553 -0.053172 -10.758165
v 10.021933 -0.053171 -6.191524
v -10.014828 -0.053173 -6.183833
v -11.686039 -0.053173 -3.897948
v 11.693145 -0.053170 -3.906924
v 5.572217 -0.053172 -9.469954
v -5.565111 -0.053173 -9.465679
v 2.787885 -0.053172 -10.388910
v -2.780779 -0.053173 -10.386774
v -7.953278 -0.053173 -8.057034
v 7.960382 -0.053171 -8.063144
v 6.410553 -0.053170 4.758614
v -6.354605 -0.053171 4.763514
v -3.151105 -0.053171 7.951418
v 3.231474 -0.053170 7.948967
v 0.014863 0.000134 3.087119
v -0.333084 0.000067 3.185995
v -0.527950 0.000032 3.414090
v -0.597371 0.000134 3.699353
v -0.518183 0.000011 3.973260
v -0.283601 0.000200 4.215071
v 0.101993 0.000056 4.273453
v 0.411895 0.000134 4.117404
v 0.564532 0.000026 3.866609
v 0.588952 0.000061 3.582498
v 0.396029 0.000255 3.228739
v -0.045077 0.060286 3.226813
v -0.294488 0.062682 3.331302
v -0.462287 0.060878 3.628279
v -0.366427 0.061821 3.968317
v -0.133499 0.060286 4.124578
v 0.101233 0.060762 4.134601
v 0.366634 0.060878 3.971629
v 0.456387 0.060743 3.723897
v 0.421713 0.060762 3.497389
v 0.217982 0.061571 3.276672
v 0.027752 0.105757 3.402710
v -0.204397 0.105891 3.480093
v -0.280447 0.105843 3.749038
v -0.029392 0.106356 3.982916
v 0.246703 0.105780 3.825431
v 0.258973 0.105992 3.546065
vn -0.0000 1.0000 -0.0000
vn -0.0525 0.9952 -0.0828
vn 0.0235 0.9927 -0.1179
vn -0.0285 0.9952 0.0940
vn -0.0138 0.9952 -0.0969
vn 0.0096 0.9952 -0.0977
vn -0.0463 0.9952 0.0866
vn -0.0096 0.9952 0.0977
vn 0.0685 0.9952 -0.0703
vn 0.0096 0.9952 0.0977
vn -0.0096 0.9952 -0.0977
vn 0.1630 0.9731 0.1630
vn 0.0285 0.9952 0.0940
vn -0.0904 0.9922 0.0864
vn -0.0285 0.9952 -0.0940
vn -0.1630 0.9731 0.1630
vn 0.0463 0.9952 0.0866
vn 0.0138 0.9952 -0.0969
vn -0.0235 0.9927 -0.1179
vn 0.1422 0.9798 -0.1408
vn 0.0623 0.9952 0.0759
vn -0.0937 0.9947 -0.0420
vn -0.1143 0.9933 -0.0185
vn -0.1422 0.9798 -0.1408
vn 0.0759 0.9952 0.0623
vn 0.0812 0.9952 -0.0553
vn -0.0977 0.9952 -0.0096
vn 0.0903 0.9922 0.0865
vn 0.0866 0.9952 0.0463
vn -0.0685 0.9952 -0.0702
vn -0.0977 0.9952 0.0096
vn 0.0940 0.9952 0.0285
vn -0.0812 0.9952 -0.0553
vn -0.0940 0.9952 0.0285
vn 0.0977 0.9952 0.0096
vn 0.0937 0.9947 -0.0420
vn -0.0866 0.9952 0.0463
vn 0.0977 0.9952 -0.0096
vn 0.0524 0.9952 -0.0829
vn -0.0759 0.9952 0.0623
vn 0.1143 0.9933 -0.0185
vn -0.0329 0.9952 -0.0924
vn -0.0623 0.9952 0.0759
vn 0.0285 0.9952 -0.0940
vn 0.0328 0.9952 -0.0924
vn 0.0909 0.9949 -0.0428
vn 0.0781 0.9939 0.0778
vn 0.0662 0.9915 -0.1123
vn -0.0779 0.9939 0.0782
vn -0.0435 0.9904 -0.1315
vn 0.0187 0.9899 -0.1408
vn 0.0434 0.9904 -0.1316
vn -0.0908 0.9950 -0.0427
vn -0.0188 0.9899 -0.1407
vn 0.0890 0.9939 -0.0651
vn -0.0662 0.9915 -0.1122
vn -0.0811 0.9927 -0.0892
vn 0.0811 0.9927 -0.0893
vn -0.0889 0.9939 -0.0650
vn 0.1979 0.9127 0.3575
vn -0.1371 0.9672 0.2138
vn -0.3113 0.9350 -0.1702
vn 0.4008 0.8832 0.2436
vn 0.4498 0.8923 0.0388
vn 0.4358 0.8682 -0.2372
vn -0.1941 0.9345 0.2985
vn 0.1731 0.8674 -0.4666
vn 0.0657 0.9264 -0.3707
vn -0.0000 -1.0000 -0.0000
vn 0.0461 0.9624 -0.2679
vn 0.1174 0.9742 0.1930
vn 0.1174 0.9723 0.2023
vn 0.1174 0.9725 0.2011
vn 0.2508 0.9638 0.0903
vn -0.2882 0.9543 0.0786
vn 0.2147 0.9766 0.0102
vn -0.3675 0.9243 0.1035
vn -0.4557 0.8832 -0.1112
vn 0.3526 0.9271 0.1272
vn -0.1328 0.9066 -0.4005
vn 0.3657 0.9291 -0.0559
vn -0.3460 0.8764 0.3350
vn 0.2591 0.9366 -0.2357
vn -0.0490 0.8965 0.4403
vn -0.0799 0.9710 -0.2251
vn -0.3434 0.8922 -0.2933
vn 0.0001 1.0000 -0.0006
vn 0.2097 0.9591 -0.1901
vn -0.0147 0.9540 0.2994
vn 0.1093 0.9780 -0.1779
vn 0.1174 0.9744 0.1918
vn -0.2434 0.9609 -0.1317
vn -0.2036 0.9774 -0.0574
vn 0.2567 0.9657 -0.0392
vn -0.1358 0.9803 0.1436
vt 0.000000 0.000000
vt 1.000000 0.000000
vt 1.000000 1.000000
vt 0.000000 1.000000
s 1
usemtl Dirt
f 97/21/19 98/22/19 100/23/19 99/24/19
f 154/21/20 202/21/20 199/21/20 151/21/20
f 125/21/21 187/21/21 190/21/21 128/21/21
f 113/21/22 175/21/22 174/21/22 112/21/22
f 153/21/23 201/21/23 193/21/23 145/21/23
f 101/21/24 163/21/24 188/21/24 126/21/24
f 112/21/25 174/21/25 173/21/25 111/21/25
f 191/21/19 206/21/19 190/21/19 186/21/19
f 166/21/19 189/21/19 204/21/19 192/21/19
f 166/21/19 167/21/19 168/21/19 169/21/19 170/21/19 171/21/19 172/21/19 173/21/19 174/21/19 175/21/19 176/21/19 177/21/19 178/21/19 179/21/19 180/21/19 181/21/19 182/21/19 183/21/19 184/21/19 185/21/19 186/21/19 190/21/19 187/21/19 188/21/19 163/21/19 164/21/19 165/21/19 189/21/19
f 204/21/19 205/21/19 201/21/19 199/21/19 202/21/19 195/21/19 196/21/19 192/21/19
f 194/21/19 203/21/19 198/21/19 200/21/19 205/21/19 206/21/19 191/21/19 197/21/19
f 193/21/19 201/21/19 205/21/19 200/21/19
f 114/21/26 176/21/26 175/21/26 113/21/26
f 155/21/27 203/21/27 194/21/27 146/21/27
f 115/21/28 177/21/28 176/21/28 114/21/28
f 102/21/29 164/21/29 163/21/29 101/21/29
f 157/21/30 205/21/30 204/21/30 156/21/30
f 116/21/31 178/21/31 177/21/31 115/21/31
f 104/21/32 166/21/32 192/21/32 144/21/32
f 103/21/33 165/21/33 164/21/33 102/21/33
f 158/21/34 206/21/34 205/21/34 157/21/34
f 117/21/35 179/21/35 178/21/35 116/21/35
f 145/21/36 193/21/36 200/21/36 152/21/36
f 127/21/37 189/21/37 165/21/37 103/21/37
f 156/21/38 204/21/38 189/21/38 127/21/38
f 118/21/39 180/21/39 179/21/39 117/21/39
f 144/21/40 192/21/40 196/21/40 148/21/40
f 105/21/41 167/21/41 166/21/41 104/21/41
f 128/21/42 190/21/42 206/21/42 158/21/42
f 119/21/43 181/21/43 180/21/43 118/21/43
f 146/21/44 194/21/44 197/21/44 149/21/44
f 106/21/45 168/21/45 167/21/45 105/21/45
f 143/21/46 191/21/46 186/21/46 124/21/46
f 120/21/47 182/21/47 181/21/47 119/21/47
f 147/21/48 195/21/48 202/21/48 154/21/48
f 107/21/49 169/21/49 168/21/49 106/21/49
f 121/21/50 183/21/50 182/21/50 120/21/50
f 148/21/51 196/21/51 195/21/51 147/21/51
f 108/21/52 170/21/52 169/21/52 107/21/52
f 122/21/53 184/21/53 183/21/53 121/21/53
f 149/21/54 197/21/54 191/21/54 143/21/54
f 109/21/55 171/21/55 170/21/55 108/21/55
f 123/21/56 185/21/56 184/21/56 122/21/56
f 150/21/57 198/21/57 203/21/57 155/21/57
f 110/21/58 172/21/58 171/21/58 109/21/58
f 124/21/59 186/21/59 185/21/59 123/21/59
f 151/21/60 199/21/60 201/21/60 153/21/60
f 111/21/61 173/21/61 172/21/61 110/21/61
f 126/21/62 188/21/62 187/21/62 125/21/62
f 152/21/63 200/21/63 198/21/63 150/21/63
f 241/21/78 231/21/78 232/21/78 242/21/78
f 240/21/79 249/21/79 239/21/79
f 227/21/80 238/21/80 237/21/80
f 233/21/81 242/21/81 232/21/81
f 234/21/82 243/21/82 233/21/82
f 235/21/83 244/21/83 234/21/83
f 230/21/84 240/21/84 239/21/84
f 225/21/85 245/21/85 235/21/85
f 225/21/86 236/21/86 245/21/86
f 231/21/87 230/21/87 229/21/87 228/21/87 227/21/87 226/21/87 225/21/87 235/21/87 234/21/87 233/21/87 232/21/87
f 236/21/88 246/21/88 245/21/88
f 242/21/89 250/21/90 249/21/91
f 243/21/92 250/21/92 242/21/92
f 239/21/93 248/21/93 238/21/93
f 243/21/94 251/21/94 250/21/94
f 239/21/95 238/21/95 228/21/95 229/21/95
f 227/21/96 228/21/96 238/21/96
f 233/21/97 243/21/97 242/21/97
f 236/21/98 225/21/98 226/21/98 237/21/98
f 234/21/99 244/21/99 243/21/99
f 229/21/100 230/21/100 239/21/100
f 235/21/101 245/21/101 244/21/101
f 240/21/102 230/21/102 231/21/102 241/21/102
f 247/21/103 246/21/103 236/21/103 237/21/103
f 226/21/104 227/21/104 237/21/104
f 251/21/105 246/21/105 247/21/105 248/21/105 249/21/105 250/21/105
f 244/21/106 245/21/106 251/21/106
f 240/21/107 241/21/107 249/21/107
f 245/21/108 246/21/108 251/21/108
f 241/21/109 242/21/89 249/21/91
f 237/21/110 238/21/110 247/21/110
f 238/21/111 248/21/111 247/21/111
f 243/21/112 244/21/112 251/21/112
f 239/21/113 249/21/113 248/21/113
usemtl Grass
f 102/21/19 101/21/19 126/21/19 125/21/19 128/21/19 158/21/19 157/21/19 156/21/19 127/21/19 103/21/19
f 132/21/19 140/21/19 138/21/19 141/21/19 134/21/19 135/21/19 130/21/19 144/21/19 148/21/19 147/21/19 154/21/19 151/21/19 153/21/19 145/21/19 152/21/19 150/21/19 155/21/19 146/21/19 149/21/19 143/21/19 129/21/19 136/21/19 133/21/19 142/21/19 137/21/19 139/21/19
f 144/21/19 130/21/19 160/21/19
f 129/21/19 143/21/19 159/21/19
f 104/21/19 144/21/19 160/21/19 161/21/19
f 143/21/19 124/21/19 162/21/19 159/21/19
f 105/21/19 104/21/19 161/21/19 131/21/19 162/21/19 124/21/19 123/21/19 122/21/19 121/21/19 120/21/19 119/21/19 118/21/19 117/21/19 116/21/19 115/21/19 114/21/19 113/21/19 112/21/19 111/21/19 110/21/19 109/21/19 108/21/19 107/21/19 106/21/19
f 129/21/64 207/21/64 214/21/64 136/21/64
f 159/21/65 221/21/65 207/21/65 129/21/65
f 142/21/66 220/21/66 215/21/66 137/21/66
f 161/21/67 223/21/67 209/21/67 131/21/67
f 140/21/68 218/21/68 216/21/68 138/21/68
f 139/21/69 217/21/69 210/21/69 132/21/69
f 137/21/70 215/21/70 217/21/70 139/21/70
f 162/21/65 224/21/65 221/21/65 159/21/65
f 135/21/71 213/21/71 208/21/71 130/21/71
f 132/21/72 210/21/72 218/21/72 140/21/72
f 130/21/67 208/21/67 222/21/67 160/21/67
f 136/21/73 214/21/73 211/21/73 133/21/73
f 138/21/74 216/21/74 219/21/74 141/21/74
f 160/21/67 222/21/67 223/21/67 161/21/67
f 141/21/75 219/21/75 212/21/75 134/21/75
f 133/21/76 211/21/76 220/21/76 142/21/76
f 131/21/65 209/21/65 224/21/65 162/21/65
f 134/21/77 212/21/77 213/21/77 135/21/77
