# Blender v2.72 (sub 0) OBJ File: 'orange_arms_ger.blend'
# www.blender.org
mtllib fingerBase.mtl
o Mesh_obj0.000_Mesh_obj0.002
v 0.003975 0.014403 0.007405
v 0.000771 0.012005 0.013141
v 0.007273 0.013658 0.012575
v 0.003959 0.014542 0.006534
v 0.011946 0.014575 0.004014
v 0.012593 0.015718 -0.005356
v 0.010376 0.015053 0.000962
v 0.004322 0.015204 0.000863
v 0.018167 0.015404 -0.004227
v 0.028773 0.014771 -0.001789
v 0.000566 0.008819 0.006540
v 0.042745 0.012913 0.009639
v 0.049879 0.012962 0.005155
v 0.027481 0.013123 0.011786
v 0.002253 0.014454 0.004999
v 0.002871 -0.012208 0.002772
v -0.000071 -0.011975 0.001636
v 0.059865 -0.012909 0.004692
v 0.057611 0.011154 0.007523
v 0.060606 0.010779 0.007636
v 0.032477 0.001503 0.012377
v 0.059869 0.000419 0.012578
v 0.059590 0.007696 0.013177
v 0.056538 0.011578 0.009335
v 0.060308 0.010568 0.010863
v 0.059339 0.009941 0.011839
v 0.001438 0.012384 0.013022
v 0.000761 0.002341 0.011980
v 0.027686 -0.002506 0.011760
v 0.029735 0.002057 0.006313
v 0.032367 -0.002659 0.011807
v 0.000733 -0.009497 0.010513
v 0.059742 -0.003549 0.012084
v 0.058603 -0.009635 0.011273
v 0.058599 -0.010827 0.010774
v 0.000715 -0.012199 0.009782
v 0.010529 -0.013237 0.009132
v 0.059328 -0.011703 0.010017
v 0.044114 -0.013702 0.004417
v 0.053846 -0.013391 0.005828
v 0.057701 -0.012765 0.006916
v 0.050380 -0.013566 0.005623
v 0.056148 -0.000886 0.007786
v 0.056801 -0.013183 0.005506
v 0.060557 0.011217 0.008998
v 0.050704 -0.012524 -0.000285
v 0.057072 -0.012264 0.000588
v 0.054172 -0.012305 -0.000075
v 0.060101 -0.012062 0.000471
v 0.058520 -0.012543 0.001639
v 0.012659 -0.010405 -0.009248
v 0.045358 -0.009665 -0.005511
v 0.049688 -0.010542 -0.003948
v 0.014347 -0.009663 -0.009753
v 0.044878 -0.007948 -0.007103
v 0.044067 -0.008832 -0.006529
v 0.021866 0.008111 -0.010365
v 0.021669 0.011102 -0.009058
v 0.043777 0.007791 -0.007430
v 0.017084 0.012517 -0.008665
v 0.020334 0.009544 -0.010435
v 0.045762 0.010119 -0.004727
v 0.045578 0.011826 -0.002532
v 0.049944 0.011314 -0.002176
v 0.050516 0.011754 -0.001068
v 0.053151 0.012446 0.002907
v 0.054935 0.012068 0.002953
v 0.060849 0.011889 0.003447
v 0.055207 0.011970 0.003454
v 0.015486 0.013697 -0.007692
v 0.044560 0.010799 -0.003974
v 0.018160 -0.004403 -0.012501
v 0.020581 -0.001459 -0.012470
v 0.020533 -0.006140 -0.011349
v 0.056115 -0.011473 0.000332
v 0.056823 0.011185 0.003146
v 0.001523 -0.012318 0.003999
v 0.005917 0.000936 0.004545
v 0.009223 -0.012506 0.003576
v 0.005263 0.014804 0.001418
v 0.004527 -0.011636 -0.002240
v 0.000913 0.014874 0.001953
v 0.003484 -0.011576 -0.002465
v -0.000140 -0.012133 0.002924
v 0.011109 -0.012206 0.000686
v 0.009537 -0.011777 -0.002371
v 0.051171 0.011771 0.008771
v 0.049604 0.012352 0.005733
v 0.051486 0.012500 0.002824
v 0.059267 0.011331 0.004605
v 0.054597 0.011591 0.008931
v 0.054932 0.011362 0.008416
v 0.010051 0.013977 0.006866
v 0.011936 0.014277 0.003977
v 0.058131 0.000965 0.008622
v -0.000035 -0.001544 0.010988
v 0.003495 -0.000972 0.005494
v 0.003618 0.002997 0.005987
v 0.003521 -0.000911 0.004999
v 0.015387 0.002731 -0.009405
v 0.015824 0.001592 -0.009906
v 0.016293 0.003513 -0.009978
v 0.019677 0.002286 -0.012710
v 0.000107 0.002464 0.011155
v 0.015715 -0.008294 -0.010665
v 0.044555 -0.006776 -0.007896
v 0.041294 -0.000196 -0.010174
v 0.040992 0.002953 -0.009923
v 0.020134 0.006405 -0.012069
v 0.045197 0.000345 -0.004102
v 0.020559 0.001337 -0.010622
v 0.045008 0.001840 -0.003881
v 0.020746 0.003285 -0.009692
v 0.021845 0.002666 -0.010663
v 0.044041 0.000726 -0.005230
v 0.046361 0.000978 -0.004754
v 0.045754 -0.008296 -0.006799
v 0.050557 0.000040 -0.003357
v 0.049993 0.001645 -0.003164
v 0.056061 -0.002931 0.008035
v 0.046707 0.001097 -0.005797
v 0.053279 -0.011665 -0.001677
v 0.021195 -0.002865 -0.011929
v 0.042716 -0.004430 -0.009206
v 0.019976 0.003612 -0.011205
vn -0.214800 0.938000 0.272100
vn 0.024800 -0.987100 -0.158000
vn -0.035500 -0.991400 -0.125600
vn -0.022900 -0.993400 -0.112600
vn -0.032500 -0.992700 -0.115900
vn -0.043700 -0.990200 -0.132600
vn -0.030900 -0.991900 -0.123100
vn -0.813900 0.532700 -0.231900
vn -0.040100 -0.996400 -0.074700
vn -0.037800 -0.989000 -0.142900
vn -0.031100 -0.991900 -0.123200
vn -0.031000 -0.991900 -0.123400
vn 0.365000 0.085900 -0.927000
vn 0.052600 0.121500 -0.991200
vn -0.010600 -0.082400 0.996500
vn -0.097600 -0.924000 -0.369800
vn -0.084300 -0.852500 -0.515900
vn -0.047000 -0.500000 -0.864800
vn -0.018400 -0.258400 -0.965900
vn 0.019100 0.269100 0.962900
vn -0.009300 -0.119300 0.992800
vn 0.627700 -0.696600 -0.347500
vn -0.911800 -0.032000 0.409400
vn 0.018400 0.763000 0.646100
vn -0.014000 -0.122800 0.992300
vn -0.014100 -0.122600 0.992400
vn -0.014200 -0.066500 0.997700
vn -0.013300 -0.129800 0.991500
vn -0.001600 -0.541100 0.840900
vn 0.006700 -0.650500 0.759500
vn 0.025200 -0.961200 0.274600
vn 0.018700 -0.893800 0.448200
vn -0.189800 0.176700 0.965800
vn 0.254400 0.103700 -0.961500
vn 0.118900 -0.174900 0.977400
vn -0.262900 0.088400 -0.960800
vn 0.267200 -0.176700 0.947300
vn 0.197400 -0.168600 0.965700
vn 0.054200 -0.983900 -0.170500
vn 0.077400 -0.957100 -0.279300
vn 0.050700 -0.945800 -0.320700
vn 0.093400 -0.735300 -0.671300
vn 0.102500 -0.605600 -0.789100
vn 0.127200 0.404200 -0.905800
vn 0.117100 0.599500 -0.791700
vn 0.141300 0.787100 -0.600400
vn 0.142800 0.875500 -0.461700
vn 0.139700 0.918700 -0.369400
vn -0.108100 -0.991700 0.070300
vn -0.014400 -0.982700 -0.184400
vn 0.096300 -0.700100 -0.707500
vn 0.096100 -0.707300 -0.700300
vn 0.150300 0.841000 -0.519800
vn 0.142900 0.887400 -0.438400
vn 0.143900 0.755300 -0.639400
vn 0.286600 -0.225800 -0.931100
vn 0.071800 -0.125200 0.989500
vn -0.015000 -0.324500 -0.945800
vn 0.052500 0.121500 -0.991200
vn 0.052700 0.121500 -0.991200
vn 0.081800 -0.042900 -0.995700
vn -0.104800 -0.994500 0.005800
vn -0.949900 -0.247400 0.190800
vn -0.118700 0.139300 -0.983100
vn 0.217200 0.181300 -0.959100
vn -0.030900 -0.991900 -0.123300
vn 0.046300 -0.144000 0.988500
vn 0.526400 -0.140000 -0.838600
vn 0.481800 -0.124000 -0.867500
vn -0.031000 -0.991900 -0.123200
vn -0.033000 -0.977200 -0.209900
vn -0.015500 -0.981600 -0.190400
vn 0.060100 -0.983800 -0.169000
vn -0.118900 -0.984800 -0.127000
vn -0.118600 -0.984800 -0.127000
vn -0.119600 -0.984600 -0.127700
vn -0.119000 -0.984700 -0.127200
vn -0.065900 -0.926900 0.369500
vn -0.119100 -0.984700 -0.127500
vn -0.118900 -0.984700 -0.127200
vn -0.306400 0.112300 -0.945200
vn 0.040200 -0.998500 -0.037700
vn 0.129600 0.945300 -0.299300
vn 0.014400 0.997900 0.063300
vn -0.180700 -0.982800 -0.037500
vn 0.099200 0.987200 0.124800
vn -0.022800 -0.992800 -0.117400
vn -0.737400 0.115300 0.665500
vn 0.744200 0.180100 0.643200
vn -0.196600 -0.086100 0.976700
vn -0.364600 -0.188600 0.911900
vn 0.031100 0.991900 0.123300
vn 0.031100 0.991900 0.123100
vn 0.183800 0.115500 -0.976200
vn -0.838300 0.093000 -0.537300
vn -0.838200 0.093000 -0.537400
vn -0.890500 -0.028600 0.454100
vn 0.022000 -0.137600 0.990200
vn -0.114000 0.085800 -0.989800
vn -0.289700 -0.134400 0.947600
vn -0.595900 -0.080600 0.799000
vn 0.997800 0.029600 0.059900
vn 0.838100 -0.093000 0.537500
vn 0.890600 0.028600 -0.453800
vn 0.904500 -0.108800 -0.412400
vn -0.067000 -0.807800 -0.585600
vn 0.079000 0.801100 0.593300
vn -0.069900 -0.615100 -0.785400
vn 0.400700 0.121100 -0.908200
vn -0.951100 -0.011000 -0.308600
vn -0.832000 0.212200 -0.512600
vn -0.998100 0.037300 -0.049200
vn 0.999400 -0.026100 -0.022700
vn 0.275100 0.087300 -0.957400
vn -0.950000 0.311900 -0.011000
vn -0.544000 -0.016000 0.838900
vn -0.013300 -0.261200 0.965200
vn -0.892800 -0.112300 0.436300
vn -0.029900 -0.062400 0.997600
vn -0.989100 -0.054200 -0.137000
vn 0.601400 -0.117000 0.790300
vn -0.601500 0.117100 -0.790200
vn 0.601300 -0.117100 0.790400
vn -0.600000 0.114900 -0.791700
vn -0.597900 0.114200 -0.793400
vn 0.597000 -0.119400 0.793300
vn -0.997500 0.070000 -0.002900
vn 0.052400 0.121500 -0.991200
vn -0.100500 0.705600 0.701500
vn 0.099700 -0.649900 -0.753500
vn -0.117100 0.432700 0.893900
vn 0.108800 -0.479400 -0.870800
vn -0.114800 0.083900 0.989800
vn 0.110000 -0.055900 -0.992400
vn -0.225400 -0.296400 -0.928100
vn -0.124100 -0.139100 0.982500
vn -0.057400 0.463800 -0.884100
vn 0.151600 0.743100 -0.651800
vn 0.151100 0.832400 -0.533100
vn -0.591600 0.109300 -0.798800
vn -0.644500 -0.749900 -0.149200
vn 0.514000 -0.187200 0.837100
vn 0.451600 -0.251400 0.856100
vn 0.258500 0.173200 -0.950400
vn 0.235900 0.400100 -0.885600
vn -0.150600 -0.902000 0.404600
vn -0.232300 -0.661800 0.712800
vn -0.211800 0.234300 0.948800
vn -0.062300 0.924600 0.375900
vn 0.799200 0.033700 -0.600200
vn -0.470100 0.144500 -0.870700
vn -0.855200 -0.057600 0.515100
vn -0.997300 -0.065300 -0.032700
vn -0.976400 0.105400 -0.188300
vn -0.531000 0.109800 -0.840200
vn 0.711400 0.096600 -0.696100
vn 0.660100 0.115100 -0.742300
vn 0.804900 0.034100 -0.592400
vn 0.201100 -0.131400 0.970700
vn 0.653300 -0.113800 0.748500
vn 0.468700 -0.137700 0.872600
vn -0.362400 -0.104100 0.926200
vn -0.120400 0.361100 -0.924700
vn -0.093100 0.436300 -0.895000
vn 0.020000 -0.606400 -0.794900
vn 0.144800 0.162600 -0.976000
vn 0.146700 0.169000 -0.974600
vn 0.881200 0.031000 -0.471800
vn 0.219200 0.131200 -0.966800
vn -0.052300 -0.121500 0.991200
vn -0.814200 0.095600 -0.572700
vn 0.081200 0.929200 -0.360500
vn 0.740300 0.196600 -0.642800
vn 0.298700 0.108500 -0.948200
vn 0.746300 0.048900 0.663800
vn 0.126300 0.091000 -0.987800
vn 0.652500 0.073300 -0.754200
vn 0.615500 0.078100 -0.784200
vn 0.436800 0.257400 -0.861900
vn 0.615500 0.078300 -0.784200
vn 0.615500 0.078000 -0.784300
vn 0.615300 0.078300 -0.784400
vn 0.532300 -0.014200 -0.846400
vn 0.091500 -0.914100 -0.395000
vn 0.073100 -0.843200 -0.532500
vn 0.051900 0.925400 0.375500
vn 0.159800 -0.700500 -0.695500
vn -0.112100 0.478000 0.871200
vn 0.108700 -0.523800 -0.844900
vn -0.107500 0.524500 0.844600
vn 0.109200 -0.194600 -0.974800
vn 0.123300 -0.308800 -0.943100
vn 0.110000 -0.186300 -0.976300
vn 0.120300 -0.454800 -0.882400
vn 0.156700 0.379600 -0.911800
vn 0.110800 0.643700 -0.757200
vn 0.157900 0.724400 -0.671000
vn 0.161100 0.711800 -0.683600
vn -0.148800 -0.779200 0.608900
vn 0.139600 0.893500 -0.426800
vn -0.138200 -0.894000 0.426300
vn 0.148200 0.941300 -0.303200
vn 0.203700 0.920500 -0.333500
vn 0.407100 0.759200 -0.507800
vn 0.517900 0.378000 -0.767400
vn 0.575400 0.043600 -0.816700
vn 0.545800 -0.089700 -0.833100
vn 0.583400 0.010200 -0.812100
vn 0.540200 0.118300 -0.833200
vn 0.609800 0.104200 -0.785700
vn 0.001000 -0.518700 0.854900
vn -0.002500 0.652500 -0.757800
vn 0.006300 -0.947100 0.321000
vn 0.981700 -0.173200 -0.078700
vn 0.648700 0.548100 -0.528000
vn 0.735600 -0.031900 -0.676600
vn -0.612300 0.135400 -0.778900
vn -0.983500 0.013800 -0.180500
vn -0.966400 0.159600 -0.201400
vn -0.131200 0.096400 -0.986700
vn 0.999800 -0.005400 0.020100
vn 0.949900 0.177400 -0.257200
vn 0.548300 -0.140100 0.824400
vn 0.966400 0.067500 -0.248100
vn -0.751300 -0.076100 0.655500
vn -0.666500 -0.065000 0.742700
vn -0.837300 -0.026600 0.546100
vn -0.933400 -0.156300 0.323100
vn 0.106200 0.921300 0.374000
vn 0.226300 -0.752600 0.618400
vn 0.316400 -0.140900 0.938100
vn 0.057900 -0.114000 -0.991800
vn 0.162500 0.972800 0.165000
vn -0.047300 0.757800 0.650800
vn -0.117200 -0.791600 0.599700
vn 0.199600 -0.978800 -0.045500
vn 0.030800 0.991800 0.123900
vn 0.031000 0.991900 0.123200
vn -0.221700 -0.233800 0.946700
vn 0.653600 -0.475100 -0.589200
vn -0.815300 -0.386500 -0.431100
vn -0.024700 -0.992400 -0.120400
vn -0.786700 -0.072900 0.613000
vn -0.256200 0.159400 0.953400
vn 0.157500 0.112600 0.981100
vn 0.114300 -0.508100 0.853700
vn -0.038400 -0.992000 -0.120100
vn 0.175100 -0.138000 0.974800
vn 0.081800 0.928100 -0.363300
vn -0.098600 -0.980900 -0.167600
vn 0.221800 0.975000 0.014800
vn 0.204600 0.975600 0.079900
vn -0.038600 -0.990100 -0.135200
vn 0.313400 -0.126700 0.941100
vn 0.060200 -0.991900 -0.111900
vn 0.270500 -0.930400 -0.247300
vn 0.667400 0.036000 -0.743800
vn 0.987200 -0.156200 0.033300
vn 0.998100 -0.037300 0.048300
vn 0.263400 -0.959300 -0.102200
vn 0.612800 -0.116300 0.781600
vn 0.612900 -0.116300 0.781500
usemtl material_0.0
s off
f 1//1 2//1 3//1
f 3//2 1//2 4//2
f 4//3 5//3 3//3
f 6//4 7//4 8//4
f 6//5 9//5 7//5
f 9//6 5//6 7//6
f 9//7 10//7 5//7
f 1//8 11//8 2//8
f 12//9 5//9 13//9
f 13//10 5//10 10//10
f 5//11 14//11 3//11
f 14//12 5//12 12//12
f 15//13 16//13 17//13
f 18//14 19//14 20//14
f 21//15 22//15 23//15
f 24//16 25//16 12//16
f 14//17 12//17 26//17
f 23//18 3//18 14//18
f 2//19 3//19 23//19
f 2//20 23//20 27//20
f 2//21 28//21 23//21
f 29//22 30//22 21//22
f 21//23 30//23 31//23
f 30//24 29//24 31//24
f 32//25 33//25 31//25
f 29//26 32//26 31//26
f 21//27 23//27 28//27
f 32//28 34//28 33//28
f 35//29 36//29 37//29
f 37//30 38//30 35//30
f 38//31 37//31 39//31
f 40//32 41//32 42//32
f 41//33 39//33 42//33
f 41//34 40//34 43//34
f 43//35 40//35 44//35
f 19//36 18//36 44//36
f 44//37 18//37 45//37
f 44//38 45//38 43//38
f 42//39 39//39 46//39
f 47//40 46//40 48//40
f 47//41 49//41 50//41
f 51//42 52//42 53//42
f 54//43 55//43 56//43
f 57//44 58//44 59//44
f 60//45 58//45 61//45
f 62//46 63//46 64//46
f 63//47 6//47 9//47
f 10//48 65//48 9//48
f 13//49 10//49 66//49
f 67//50 68//50 69//50
f 56//51 51//51 54//51
f 51//52 56//52 52//52
f 70//53 71//53 62//53
f 65//54 63//54 9//54
f 63//55 71//55 6//55
f 72//56 73//56 74//56
f 24//57 43//57 45//57
f 47//58 75//58 49//58
f 49//59 75//59 68//59
f 68//60 75//60 76//60
f 68//61 76//61 67//61
f 77//62 37//62 36//62
f 78//63 79//63 37//63
f 80//64 81//64 82//64
f 81//65 83//65 82//65
f 17//66 16//66 84//66
f 84//67 16//67 78//67
f 84//68 78//68 77//68
f 77//69 78//69 37//69
f 85//70 39//70 79//70
f 51//71 86//71 81//71
f 51//72 81//72 83//72
f 86//73 51//73 85//73
f 39//70 37//70 79//70
f 87//74 88//74 89//74
f 89//75 67//75 87//75
f 87//76 67//76 69//76
f 87//77 69//77 90//77
f 91//78 87//78 92//78
f 92//79 87//79 90//79
f 92//80 90//80 19//80
f 92//81 19//81 40//81
f 90//82 45//82 19//82
f 20//83 19//83 45//83
f 69//84 24//84 68//84
f 13//85 66//85 24//85
f 24//86 45//86 68//86
f 7//87 4//87 8//87
f 80//88 78//88 93//88
f 80//89 15//89 78//89
f 15//90 16//90 78//90
f 86//91 94//91 80//91
f 80//92 93//92 94//92
f 15//93 80//93 82//93
f 79//94 78//94 93//94
f 85//95 79//95 94//95
f 94//96 79//96 93//96
f 86//97 85//97 94//97
f 81//98 86//98 80//98
f 44//99 40//99 19//99
f 90//100 69//100 47//100
f 47//101 50//101 90//101
f 42//102 46//102 88//102
f 46//103 89//103 88//103
f 87//104 42//104 88//104
f 95//105 25//105 22//105
f 25//106 26//106 12//106
f 25//107 14//107 26//107
f 14//108 25//108 23//108
f 24//109 25//109 95//109
f 25//110 22//110 23//110
f 77//111 96//111 97//111
f 98//112 1//112 99//112
f 4//113 1//113 99//113
f 99//114 84//114 4//114
f 99//115 84//115 97//115
f 97//116 84//116 77//116
f 36//117 34//117 32//117
f 36//118 32//118 96//118
f 96//119 32//119 29//119
f 77//120 36//120 96//120
f 8//121 83//121 100//121
f 100//122 101//122 83//122
f 100//123 102//123 8//123
f 102//121 6//121 8//121
f 83//124 101//124 51//124
f 101//125 103//125 51//125
f 102//126 103//126 6//126
f 104//127 2//127 11//127
f 1//128 98//128 11//128
f 54//129 51//129 55//129
f 55//130 51//130 105//130
f 72//131 74//131 106//131
f 72//132 106//132 105//132
f 73//133 72//133 107//133
f 107//134 72//134 103//134
f 51//135 72//135 105//135
f 103//136 108//136 109//136
f 60//137 61//137 109//137
f 62//138 60//138 70//138
f 6//139 71//139 70//139
f 72//140 51//140 103//140
f 60//141 6//141 70//141
f 103//142 109//142 6//142
f 109//143 60//143 6//143
f 110//144 111//144 112//144
f 112//145 111//145 113//145
f 112//146 113//146 114//146
f 112//147 114//147 115//147
f 115//148 114//148 111//148
f 110//149 115//149 111//149
f 112//150 115//150 71//150
f 112//151 63//151 116//151
f 62//152 117//152 116//152
f 116//153 63//153 62//153
f 116//154 117//154 52//154
f 116//155 52//155 110//155
f 56//156 115//156 110//156
f 56//157 110//157 52//157
f 63//158 112//158 71//158
f 71//159 115//159 56//159
f 71//160 56//160 55//160
f 55//161 62//161 71//161
f 117//162 62//162 55//162
f 111//163 101//163 100//163
f 111//164 100//164 113//164
f 113//165 100//165 102//165
f 110//166 112//166 118//166
f 118//167 112//167 119//167
f 69//168 48//168 67//168
f 69//169 47//169 48//169
f 67//170 89//170 46//170
f 46//128 67//128 48//128
f 91//59 40//59 87//59
f 87//128 40//128 42//128
f 92//171 40//171 91//171
f 92//172 91//172 24//172
f 120//173 33//173 41//173
f 24//174 95//174 43//174
f 120//175 41//175 43//175
f 107//176 103//176 108//176
f 118//177 76//177 75//177
f 121//178 107//178 59//178
f 119//179 76//179 118//179
f 75//180 107//180 121//180
f 121//181 59//181 76//181
f 121//182 76//182 119//182
f 118//183 75//183 121//183
f 47//184 46//184 122//184
f 122//185 51//185 53//185
f 122//186 53//186 52//186
f 52//187 117//187 122//187
f 55//188 105//188 117//188
f 117//189 105//189 106//189
f 117//190 106//190 74//190
f 74//191 123//191 124//191
f 73//192 107//192 123//192
f 123//193 107//193 124//193
f 117//194 74//194 124//194
f 108//195 109//195 59//195
f 59//196 109//196 57//196
f 59//197 58//197 64//197
f 58//198 60//198 64//198
f 64//199 60//199 62//199
f 64//200 63//200 65//200
f 65//201 10//201 64//201
f 64//202 10//202 66//202
f 64//203 66//203 67//203
f 64//204 67//204 76//204
f 75//205 47//205 122//205
f 75//206 122//206 117//206
f 75//207 117//207 124//207
f 75//208 124//208 107//208
f 107//209 108//209 59//209
f 76//210 59//210 64//210
f 34//211 36//211 38//211
f 38//212 36//212 35//212
f 38//213 39//213 41//213
f 33//214 34//214 41//214
f 41//215 34//215 38//215
f 61//216 58//216 113//216
f 58//217 114//217 113//217
f 57//218 114//218 58//218
f 123//219 74//219 114//219
f 74//220 111//220 114//220
f 111//221 74//221 73//221
f 111//222 73//222 125//222
f 125//223 73//223 61//223
f 73//224 109//224 61//224
f 109//225 73//225 123//225
f 109//226 123//226 57//226
f 57//227 123//227 114//227
f 125//228 103//228 111//228
f 111//229 103//229 101//229
f 103//230 125//230 102//230
f 102//231 125//231 61//231
f 102//232 61//232 113//232
f 116//233 118//233 121//233
f 110//234 118//234 116//234
f 112//235 116//235 119//235
f 119//236 116//236 121//236
f 29//237 99//237 97//237
f 29//238 97//238 96//238
f 98//239 99//239 21//239
f 104//240 11//240 28//240
f 28//241 11//241 98//241
f 28//242 98//242 21//242
f 2//243 104//243 28//243
f 29//244 21//244 99//244
f 43//245 31//245 120//245
f 120//238 31//238 33//238
f 43//246 95//246 21//246
f 21//247 95//247 22//247
f 31//248 43//248 21//248
f 91//249 12//249 24//249
f 12//250 13//250 24//250
f 66//251 24//251 69//251
f 66//252 69//252 67//252
f 7//253 5//253 4//253
f 82//254 83//254 8//254
f 8//255 4//255 82//255
f 4//256 15//256 82//256
f 4//257 17//257 15//257
f 4//258 84//258 17//258
f 18//259 20//259 45//259
f 68//260 45//260 90//260
f 90//261 50//261 68//261
f 68//262 50//262 49//262
